<?xml version="1.0" encoding="UTF-8"?> <svg xmlns="http://www.w3.org/2000/svg" xmlns:xlink="http://www.w3.org/1999/xlink" viewBox="0 0 855.63 757.35"><defs><style>.cls-1,.cls-5{fill:none;}.cls-2{fill:#decded;}.cls-3{isolation:isolate;}.cls-4{fill:url(#linear-gradient);}.cls-19,.cls-5{stroke-miterlimit:10;}.cls-5{stroke-width:0.87px;stroke:url(#linear-gradient-2);}.cls-6{fill:url(#linear-gradient-3);}.cls-7{fill:#e3f5f4;}.cls-8{fill:#bcece4;}.cls-9{fill:#6de8d9;}.cls-10{fill:#323232;}.cls-11{fill:url(#linear-gradient-4);}.cls-12{fill:#3f3f3f;}.cls-13{clip-path:url(#clip-path);}.cls-14{fill:#62d3ca;}.cls-15,.cls-19,.cls-36,.cls-81{fill:#fff;}.cls-16{fill:#b73248;}.cls-17{fill:#7e263d;}.cls-18{fill:#f6f6f6;}.cls-19{stroke:#dbdbdb;stroke-width:0.77px;}.cls-20{fill:#eaeaea;}.cls-21{fill:#dbdbdb;}.cls-22{fill:#ef485f;}.cls-23{fill:url(#linear-gradient-5);}.cls-24{opacity:0.05;mix-blend-mode:hard-light;}.cls-25{fill:#aaa;}.cls-26{fill:#f4677f;}.cls-27{clip-path:url(#clip-path-2);}.cls-28{fill:#4a0084;}.cls-29{fill:url(#linear-gradient-6);}.cls-30{fill:#f8f8f8;}.cls-31{clip-path:url(#clip-path-3);}.cls-32{fill:#af84d4;}.cls-33{fill:#6f02b5;}.cls-34{fill:url(#linear-gradient-7);}.cls-35,.cls-37,.cls-38,.cls-39,.cls-40,.cls-41,.cls-42,.cls-43,.cls-44,.cls-45,.cls-46,.cls-47,.cls-48,.cls-49,.cls-50,.cls-51,.cls-52,.cls-53,.cls-54,.cls-55,.cls-56,.cls-57,.cls-58,.cls-59,.cls-60,.cls-61,.cls-62,.cls-63,.cls-64,.cls-65,.cls-66,.cls-67,.cls-68,.cls-69,.cls-70,.cls-71,.cls-72,.cls-73,.cls-74,.cls-75,.cls-76{mix-blend-mode:multiply;}.cls-36{opacity:0;}.cls-37{fill:#fefeff;opacity:0.03;}.cls-38{fill:#fdfeff;opacity:0.05;}.cls-39{fill:#fcfdff;opacity:0.08;}.cls-40{fill:#fbfcff;opacity:0.1;}.cls-41{fill:#fafbff;opacity:0.13;}.cls-42{fill:#f9fbff;opacity:0.15;}.cls-43{fill:#f8faff;opacity:0.18;}.cls-44{fill:#f7f9ff;opacity:0.2;}.cls-45{fill:#f6f8ff;opacity:0.23;}.cls-46{fill:#f5f8ff;opacity:0.25;}.cls-47{fill:#f4f7ff;opacity:0.28;}.cls-48{fill:#f3f6ff;opacity:0.3;}.cls-49{fill:#f2f6ff;opacity:0.33;}.cls-50{fill:#f1f5ff;opacity:0.35;}.cls-51{fill:#f0f4ff;opacity:0.38;}.cls-52{fill:#eff3ff;opacity:0.4;}.cls-53{fill:#eef3ff;opacity:0.43;}.cls-54{fill:#edf2ff;opacity:0.45;}.cls-55,.cls-56{fill:#ecf1ff;}.cls-55{opacity:0.48;}.cls-56{opacity:0.5;}.cls-57{fill:#ebf0ff;opacity:0.52;}.cls-58{fill:#eaefff;opacity:0.55;}.cls-59{fill:#e9eeff;opacity:0.57;}.cls-60{fill:#e8eeff;opacity:0.6;}.cls-61{fill:#e7edff;opacity:0.62;}.cls-62{fill:#e6ecff;opacity:0.65;}.cls-63{fill:#e5ebff;opacity:0.67;}.cls-64{fill:#e4ebff;opacity:0.7;}.cls-65{fill:#e3eaff;opacity:0.72;}.cls-66{fill:#e2e9ff;opacity:0.75;}.cls-67{fill:#e1e9ff;opacity:0.77;}.cls-68{fill:#e0e8ff;opacity:0.8;}.cls-69{fill:#dfe7ff;opacity:0.82;}.cls-70{fill:#dee6ff;opacity:0.85;}.cls-71{fill:#dde6ff;opacity:0.87;}.cls-72{fill:#dce5ff;opacity:0.9;}.cls-73{fill:#dbe4ff;opacity:0.92;}.cls-74{fill:#dae3ff;opacity:0.95;}.cls-75{fill:#d9e3ff;opacity:0.97;}.cls-76{fill:#d8e2ff;}.cls-77{fill:url(#Dégradé_sans_nom_2);}.cls-78{fill:url(#linear-gradient-8);}.cls-79{fill:url(#radial-gradient);}.cls-80{fill:url(#Dégradé_sans_nom_2-2);}.cls-81{fill-rule:evenodd;}.cls-82{fill:url(#linear-gradient-9);}</style><linearGradient id="linear-gradient" x1="57.35" y1="472.69" x2="234.5" y2="295.53" gradientTransform="translate(565.26 648.07) rotate(135)" gradientUnits="userSpaceOnUse"><stop offset="0" stop-color="#e3f5f4"></stop><stop offset="1" stop-color="#bcece4"></stop></linearGradient><linearGradient id="linear-gradient-2" x1="107.44" y1="352.18" x2="732.68" y2="352.18" gradientUnits="userSpaceOnUse"><stop offset="0" stop-color="#850cd6"></stop><stop offset="0.07" stop-color="#8a1bd6"></stop><stop offset="0.31" stop-color="#9a48d5"></stop><stop offset="0.52" stop-color="#a569d4"></stop><stop offset="0.69" stop-color="#ac7dd4"></stop><stop offset="0.81" stop-color="#af84d4"></stop></linearGradient><linearGradient id="linear-gradient-3" x1="178.23" y1="351.92" x2="656.15" y2="351.92" gradientUnits="userSpaceOnUse"><stop offset="0" stop-color="#a334ed"></stop><stop offset="0.78" stop-color="#6f02b5"></stop></linearGradient><linearGradient id="linear-gradient-4" x1="591.5" y1="396.89" x2="651.73" y2="333.16" gradientUnits="userSpaceOnUse"><stop offset="0" stop-color="#851ed6"></stop><stop offset="0.99" stop-color="#6de8d9"></stop></linearGradient><clipPath id="clip-path"><path id="SVGID" class="cls-1" d="M606.37,393.09a29.52,29.52,0,0,1,4,14.88v12.42H566.76V397a66.58,66.58,0,0,1,19.88-47.46L597,339.31,607.51,329a18.63,18.63,0,0,1-.1,26.47l-7.32,11.84v15C600.09,382.34,603.77,388.65,606.37,393.09Z"></path></clipPath><linearGradient id="linear-gradient-5" x1="194.95" y1="340.6" x2="281.82" y2="226.58" gradientUnits="userSpaceOnUse"><stop offset="0.17" stop-color="#851ed6"></stop><stop offset="0.86" stop-color="#6de8d9"></stop></linearGradient><clipPath id="clip-path-2"><path id="SVGID-2" data-name="SVGID" class="cls-1" d="M265.54,377.11a36.61,36.61,0,0,0-5,18.48l.19,16.53,54-1.1v-29.1A82.71,82.71,0,0,0,290.05,323L277.17,310.3l-13.05-12.85a23.15,23.15,0,0,0,.13,32.89l9.09,14.7v18.62C273.34,363.75,268.76,371.59,265.54,377.11Z"></path></clipPath><linearGradient id="linear-gradient-6" x1="406.73" y1="321.62" x2="520.44" y2="172.38" xlink:href="#linear-gradient-4"></linearGradient><clipPath id="clip-path-3"><path id="SVGID-3" data-name="SVGID" class="cls-2" d="M413.37,417.09a57.5,57.5,0,0,1,7.84,29v24.2h-85V424.65a129.7,129.7,0,0,1,38.73-92.46l20.19-19.87,20.48-20.16a36.35,36.35,0,0,1-.2,51.59L401.13,366.8V396C401.13,396.14,408.31,408.44,413.37,417.09Z"></path></clipPath><linearGradient id="linear-gradient-7" x1="261.61" y1="249.22" x2="261.61" y2="191.45" gradientUnits="userSpaceOnUse"><stop offset="0" stop-color="#dbdbdb"></stop><stop offset="1" stop-color="#f8f8f8"></stop></linearGradient><linearGradient id="Dégradé_sans_nom_2" x1="669.99" y1="124.52" x2="669.99" y2="157.15" gradientUnits="userSpaceOnUse"><stop offset="0" stop-color="#bcece4"></stop><stop offset="0.16" stop-color="#a2e5dd"></stop><stop offset="0.37" stop-color="#86ddd4"></stop><stop offset="0.58" stop-color="#72d7cf"></stop><stop offset="0.79" stop-color="#66d4cb"></stop><stop offset="1" stop-color="#62d3ca"></stop></linearGradient><linearGradient id="linear-gradient-8" x1="713.18" y1="403.21" x2="731.46" y2="453.42" gradientUnits="userSpaceOnUse"><stop offset="0.02" stop-color="#decded"></stop><stop offset="0.21" stop-color="#be92dd"></stop><stop offset="0.41" stop-color="#a25fcf"></stop><stop offset="0.59" stop-color="#8c37c4"></stop><stop offset="0.75" stop-color="#7c1abc"></stop><stop offset="0.9" stop-color="#7208b7"></stop><stop offset="1" stop-color="#6f02b5"></stop></linearGradient><radialGradient id="radial-gradient" cx="625.53" cy="204.59" r="28.95" gradientUnits="userSpaceOnUse"><stop offset="0" stop-color="#f4afb9"></stop><stop offset="0.01" stop-color="#f4acb7"></stop><stop offset="0.21" stop-color="#f28897"></stop><stop offset="0.41" stop-color="#f16c7f"></stop><stop offset="0.61" stop-color="#f0586d"></stop><stop offset="0.8" stop-color="#ef4c63"></stop><stop offset="1" stop-color="#ef485f"></stop></radialGradient><linearGradient id="Dégradé_sans_nom_2-2" x1="119.68" y1="228.57" x2="119.68" y2="263.66" xlink:href="#Dégradé_sans_nom_2"></linearGradient><linearGradient id="linear-gradient-9" x1="220.46" y1="83.51" x2="250.02" y2="113.07" gradientUnits="userSpaceOnUse"><stop offset="0" stop-color="#d4c7df"></stop><stop offset="0.1" stop-color="#cbb6dc"></stop><stop offset="0.26" stop-color="#bea0d9"></stop><stop offset="0.44" stop-color="#b690d6"></stop><stop offset="0.65" stop-color="#b187d4"></stop><stop offset="0.94" stop-color="#af84d4"></stop></linearGradient></defs><title>Homepage Hero Mobile</title><g class="cls-3"><g id="Layer_1" data-name="Layer 1"><circle class="cls-4" cx="190.47" cy="479.65" r="125.27"></circle><circle class="cls-5" cx="420.06" cy="352.18" r="312.19"></circle><path class="cls-6" d="M656.15,351.92c0,3.1,0,6.2-.17,9.27,0,.93-.08,1.87-.13,2.8v.1a.61.61,0,0,0,0,.14q-.47,9.06-1.58,17.93a236.53,236.53,0,0,1-8.07,38.23q-.47,1.61-1,3.18-.75,2.37-1.53,4.71-3.76,11.14-8.55,21.77h0a239.4,239.4,0,0,1-21.26,37.62c-2.37,3.41-4.82,6.77-7.35,10.05-.43.57-.87,1.13-1.31,1.69l-.05.06c-.59.75-1.17,1.49-1.77,2.23q-1.74,2.16-3.53,4.28l-.22.26c-.59.69-1.17,1.38-1.77,2.06s-1.17,1.35-1.77,2l-.17.19c-.49.55-1,1.11-1.5,1.66-1.66,1.84-3.36,3.66-5.08,5.45q-1.58,1.64-3.2,3.26-4.11,4.11-8.42,8L576,530.47c-1.64,1.46-3.31,2.9-5,4.32l-1.84,1.53c-.73.61-1.47,1.22-2.22,1.81s-1.5,1.2-2.25,1.79l-2.5,2-2.05,1.54c-.77.58-1.54,1.15-2.32,1.71s-1.54,1.12-2.33,1.68q-2.49,1.79-5,3.49c-.69.47-1.38.93-2.08,1.38s-1.36.9-2,1.34c-2.12,1.36-4.25,2.69-6.41,4-.63.37-1.24.75-1.87,1.11-1.26.75-2.52,1.47-3.79,2.18l-1.47.82-2.37,1.3A237.45,237.45,0,0,1,428,590.64c-3.6.16-7.22.25-10.85.25a238.6,238.6,0,0,1-68.75-10,235.45,235.45,0,0,1-24.85-9,239.38,239.38,0,0,1-143-186.15q-.79-5.62-1.33-11.33-.57-6-.83-12.19-.21-5.1-.21-10.27c0-3.14.06-6.26.18-9.38.08-2.16.19-4.3.34-6.44.45-7.09,1.23-14.09,2.3-21q.4-2.69.89-5.36c1.31-7.4,3-14.7,5-21.85A235.75,235.75,0,0,1,200.52,251q4.44-9.52,9.68-18.57A238.86,238.86,0,0,1,417.19,113c108.55,0,200.19,72.37,229.3,171.49a237.12,237.12,0,0,1,7.74,37c.32,2.55.61,5.11.84,7.68.34,3.44.59,6.91.77,10.39,0,1.11.1,2.23.14,3.35C656.1,345.87,656.15,348.89,656.15,351.92Z"></path><path class="cls-7" d="M654.65,423.57l1.58-3.17,15.9-18.3s-2.22-16.78-2.87-16.84-14.61-.07-14.61-.07l18.93-3.14L665.28,364l-10.32.26,18.62-3.35L671.46,343H656.55L672,339.22,654.82,329l-57,48.29,7,46.31Z"></path><path class="cls-7" d="M656.23,420.4A65.12,65.12,0,0,1,614,461.19l-.14,26.49a240.14,240.14,0,0,1-83.44,74.71l36.32-132.87v-9.13h89.47Z"></path><path class="cls-8" d="M608.75,419.7v20.71s26.16,2.84,37.13-20.71Z"></path><rect class="cls-9" x="591.37" y="284.46" width="76" height="143.82" rx="18.06"></rect><rect class="cls-10" x="591.37" y="284.46" width="76" height="143.82" rx="18.06"></rect><path class="cls-11" d="M648.6,337.14H610.15a.45.45,0,0,0-.46.45v38.46a.45.45,0,0,0,.46.45H648.6a.45.45,0,0,0,.45-.45V337.59A.45.45,0,0,0,648.6,337.14Z"></path><rect class="cls-12" x="623.47" y="292.33" width="11.81" height="11.81" rx="4.36"></rect><circle class="cls-9" cx="629.37" cy="298.54" r="1.16"></circle><path class="cls-8" d="M600.43,425.16v34.48A17.19,17.19,0,0,0,605.71,472l8,7.68V428.38Z"></path><path class="cls-7" d="M606.37,393.09a29.52,29.52,0,0,1,4,14.88v11.55a21.81,21.81,0,0,1-21.81,21.81h0a21.82,21.82,0,0,1-21.82-21.81V398a69.1,69.1,0,0,1,20.63-49.26l9.61-9.46,8.59-8.45a2.52,2.52,0,0,1,3.81.31,18.63,18.63,0,0,1-1.79,24.07,3.55,3.55,0,0,0-.35.44l-6.79,11a2.51,2.51,0,0,0-.38,1.34v14.27C600.09,382.34,603.77,388.65,606.37,393.09Z"></path><g class="cls-13"><rect class="cls-14" x="567.97" y="333.64" width="46.63" height="17.95" rx="8.27" transform="translate(1251.65 166.77) rotate(135)"></rect></g><path class="cls-15" d="M598.58,341.84h0a4,4,0,0,1-2.87-1.22l.45-.44a3.47,3.47,0,0,0,2.43,1h0a3.45,3.45,0,0,0,2.41-1l6.66-6.56A16,16,0,0,0,605.5,331l.44-.45a15.84,15.84,0,0,1,2.38,3l.13.21-.3.3-6.71,6.61A4.09,4.09,0,0,1,598.58,341.84Z"></path><rect class="cls-14" x="653.19" y="385.26" width="23.1" height="18.33" rx="8.44"></rect><path class="cls-15" d="M667.37,389.22a6.22,6.22,0,0,0-3.16-1.13,18.39,18.39,0,0,1,0,12.42A6.24,6.24,0,0,0,670,394.3,6.24,6.24,0,0,0,667.37,389.22Zm0,9.22a5.47,5.47,0,0,1-2.09,1.14,19.24,19.24,0,0,0,0-10.57,5.63,5.63,0,0,1,2.09,1.15,5.48,5.48,0,0,1,0,8.28Z"></path><rect class="cls-14" x="647.51" y="342.86" width="33" height="18.33" rx="8.44"></rect><rect class="cls-14" x="647.51" y="364" width="33" height="18.33" rx="8.44"></rect><path class="cls-15" d="M658.5,366.93h-1.78a18.35,18.35,0,0,1,0,12.46h1.78a6.23,6.23,0,1,0,0-12.46Zm0,11.73h-.76a18.87,18.87,0,0,0,.8-5.5,18.59,18.59,0,0,0-.81-5.5h.77a5.5,5.5,0,0,1,0,11Z"></path><path class="cls-15" d="M658.5,345.79h-1.78a18.38,18.38,0,0,1,0,12.47h1.78a6.24,6.24,0,0,0,0-12.47Zm0,11.73h-.76a18.87,18.87,0,0,0,.8-5.5,18.59,18.59,0,0,0-.81-5.5h.77a5.5,5.5,0,0,1,0,11Z"></path><rect class="cls-14" x="647.51" y="321.27" width="31.35" height="18.23" rx="8.4"></rect><path class="cls-15" d="M658.44,324.19h-1.77a18.16,18.16,0,0,1,1.09,6.2c0,.11,0,.22,0,.32a18.46,18.46,0,0,1-1.08,5.88h1.77a6.19,6.19,0,0,0,5-2.49,6.12,6.12,0,0,0,1.23-3.71A6.2,6.2,0,0,0,658.44,324.19Zm4.33,9.53a5.43,5.43,0,0,1-4.33,2.14h-.75a19.25,19.25,0,0,0,.78-4.72c0-.25,0-.5,0-.75a19.06,19.06,0,0,0-.81-5.47h.76a5.47,5.47,0,0,1,5.47,5.47A5.39,5.39,0,0,1,662.77,333.72Z"></path><path class="cls-16" d="M205.57,415l-2-3.94L183.84,388.3s2.76-20.84,3.57-20.92,18.16-.09,18.16-.09L182,363.39,192.36,341l12.81.32L182,337.13l2.64-22.24H203.2L184,310.19l21.33-12.74,64.44,84L267.43,415Z"></path><path class="cls-16" d="M348.44,580.84a235.45,235.45,0,0,1-24.85-9,239.3,239.3,0,0,1-62-38.55L256,461.71S217.78,452,203.6,411H314.75v11.34l18.35,86.31Z"></path><path class="cls-17" d="M260.73,397.24V423s-32.49,3.54-46.12-25.72Z"></path><rect class="cls-15" x="260.86" y="355.69" width="0.79" height="5.91" transform="translate(-130.37 150.05) rotate(-25.89)"></rect><path class="cls-18" d="M273.74,238.16v93.69H200.52V238.16a5.12,5.12,0,0,1,4.47-5.07l4.86-.62a216.57,216.57,0,0,1,54.56,0l4.86.62A5.11,5.11,0,0,1,273.74,238.16Z"></path><path class="cls-19" d="M200.52,331.85h73.22v73.37a5.11,5.11,0,0,1-4.47,5.07l-4.86.62a216.49,216.49,0,0,1-54.55,0l-4.87-.62a5.12,5.12,0,0,1-4.47-5.07Z"></path><rect class="cls-18" x="225.07" y="336.93" width="24.55" height="24.55" rx="6.74"></rect><rect class="cls-20" x="228.03" y="339.89" width="18.62" height="18.62" rx="4.97"></rect><path class="cls-15" d="M246.65,346.31v7.23a5,5,0,0,1-5,5H233a5,5,0,0,1-5-5v-.31a23.41,23.41,0,0,1,16.72-7C245.39,346.24,246,346.26,246.65,346.31Z"></path><rect class="cls-21" x="254.7" y="340.75" width="12.27" height="1.42" rx="0.71"></rect><rect class="cls-21" x="208.14" y="340.75" width="12.27" height="1.42" rx="0.71"></rect><rect class="cls-22" x="254.7" y="358.34" width="12.27" height="1.42" rx="0.71"></rect><rect class="cls-14" x="208.14" y="358.34" width="12.27" height="1.42" rx="0.71"></rect><path class="cls-15" d="M273.74,268.51v63.34H200.52V299.48c1.62-1.86,3.32-3.66,5.08-5.39a89.84,89.84,0,0,1,63.06-25.73C270.37,268.36,272.06,268.41,273.74,268.51Z"></path><rect class="cls-23" x="205.75" y="243.52" width="63.07" height="83.04"></rect><g class="cls-24"><path d="M268.82,268.37v58.19H205.75V294a89.85,89.85,0,0,1,62.91-25.58Z"></path></g><rect class="cls-10" x="230.99" y="237.05" width="13.12" height="2.12" rx="1.05"></rect><path class="cls-25" d="M212.74,366.46V367H214v4.77h.62v-5.33Z"></path><path class="cls-25" d="M236.24,371.23l1.73-1.76a3,3,0,0,0,1-1.72c0-.81-.67-1.31-1.69-1.31a2.89,2.89,0,0,0-1.85.74l.27.46a2.32,2.32,0,0,1,1.51-.65c.7,0,1.13.31,1.13.83a2.26,2.26,0,0,1-.77,1.32l-2.08,2.16v.49h3.8v-.56Z"></path><path class="cls-25" d="M261.15,368.74l-.33,0,1.87-1.85v-.4h-3.38V367h2.6l-1.78,1.75v.37h.71c.94,0,1.51.35,1.51,1a1,1,0,0,1-.55.9,1.84,1.84,0,0,1-.94.21,2.65,2.65,0,0,1-1.54-.5l-.27.5a3.51,3.51,0,0,0,1.83.52,2.47,2.47,0,0,0,1.26-.29,1.49,1.49,0,0,0,.8-1.36C263,369.3,262.24,368.79,261.15,368.74Z"></path><path class="cls-25" d="M215.22,385.05v-1.42h-.57v1.42h-2l2-3.35H214l-2,3.43v.49h2.67V387h.57v-1.41h.84v-.57Z"></path><path class="cls-25" d="M237.53,383.72a5.51,5.51,0,0,0-1,.08v-1.54h2.69v-.56H236v2.72a8.26,8.26,0,0,1,1.45-.14c.85,0,1.39.4,1.39,1s-.54,1.18-1.4,1.18a2.9,2.9,0,0,1-1.58-.53l-.25.5a3.65,3.65,0,0,0,1.89.58,1.76,1.76,0,0,0,2-1.76C239.47,384.37,238.71,383.72,237.53,383.72Z"></path><path class="cls-25" d="M262.43,384a1.81,1.81,0,0,0-1.13-.34,1.57,1.57,0,0,0-1.61,1c-.1-1.48.49-2.43,1.65-2.43a2.55,2.55,0,0,1,1.24.33l.25-.48a3.57,3.57,0,0,0-1.53-.38c-1.37,0-2.22,1.12-2.22,2.82s.8,2.56,2.11,2.56a1.38,1.38,0,0,0,.36,0,1.77,1.77,0,0,0,.88-3.06Zm-.72,2.46a1.69,1.69,0,0,1-.56.1,1.22,1.22,0,0,1-1.32-1.19,1.26,1.26,0,0,1,1.37-1.22,1.19,1.19,0,0,1,1,.47,1.16,1.16,0,0,1,.22.71A1.14,1.14,0,0,1,261.71,386.42Z"></path><path class="cls-25" d="M211.89,396.51v1.34h.54v-.78h2.73l-.08.17-.24.47-2.05,4.14h.65l1.71-3.48.55-1.13.12-.24v-.49Z"></path><path class="cls-25" d="M238.16,399a1.21,1.21,0,0,0,.86-1.16,1.38,1.38,0,0,0-.12-.59,2,2,0,0,0-3.17,0,1.28,1.28,0,0,0-.12.56,1.23,1.23,0,0,0,.89,1.19,1.42,1.42,0,0,0-1.15,1.37c0,.95.76,1.51,2,1.51s2-.57,2-1.52A1.41,1.41,0,0,0,238.16,399Zm-2-1.13a.79.79,0,0,1,.26-.62,1.64,1.64,0,0,1,1.86,0,.79.79,0,0,1,.25.62c0,.57-.43.92-1.18.92S236.13,398.43,236.13,397.86Zm1.19,3.51c-.88,0-1.4-.39-1.4-1.07s.52-1,1.39-1,1.4.4,1.4,1S238.19,401.37,237.32,401.37Z"></path><path class="cls-25" d="M261.06,396.48a2.74,2.74,0,0,0-.51.06,1.54,1.54,0,0,0-1,.7,1.86,1.86,0,0,0-.26,1,1.53,1.53,0,0,0,1.32,1.66h.15l.23,0a1.57,1.57,0,0,0,1.59-1c.09,1.48-.49,2.43-1.63,2.43a.65.65,0,0,1-.19,0h-.12a2.5,2.5,0,0,1-.92-.31l-.24.47a3.42,3.42,0,0,0,1.16.36H261c1.36,0,2.21-1.11,2.21-2.81S262.37,396.48,261.06,396.48Zm0,2.94a1.16,1.16,0,0,1-.33,0,.44.44,0,0,1-.15-.05,1.06,1.06,0,0,1-.75-1.09,1.18,1.18,0,0,1,.49-1,1.08,1.08,0,0,1,.24-.12,1.59,1.59,0,0,1,.55-.09,1.19,1.19,0,0,1,1.3,1.18A1.23,1.23,0,0,1,261.06,399.42Z"></path><rect class="cls-26" x="178.68" y="367.38" width="28.69" height="22.77" rx="10.49" transform="translate(386.05 757.52) rotate(-180)"></rect><path class="cls-15" d="M193.69,370.89a7.74,7.74,0,0,0,0,15.44,22.91,22.91,0,0,1,0-15.44Zm-1.33,14.29a6.83,6.83,0,0,1,0-13.13,23.64,23.64,0,0,0,0,13.13Z"></path><rect class="cls-26" x="173.44" y="314.7" width="40.99" height="22.77" rx="10.49" transform="translate(387.88 652.18) rotate(-180)"></rect><rect class="cls-26" x="173.44" y="340.97" width="40.99" height="22.77" rx="10.49" transform="translate(387.88 704.7) rotate(-180)"></rect><path class="cls-15" d="M203,344.61h-2.47a7.73,7.73,0,0,0,0,15.46H203a22.7,22.7,0,0,1,0-15.48Zm-1.27,14.57h-1.2a6.83,6.83,0,0,1,0-13.65h1.2a23.82,23.82,0,0,0,0,13.66Z"></path><path class="cls-15" d="M201.63,326.09a22.58,22.58,0,0,1,1.36-7.74h-2.47a7.74,7.74,0,0,0,0,15.47H203a20.74,20.74,0,0,1-.62-2A22.35,22.35,0,0,1,201.63,326.09Zm-.86,6.83h-.25a6.83,6.83,0,0,1,0-13.65h1.2a23.78,23.78,0,0,0-.29,12.59c.09.36.19.72.29,1.07Z"></path><rect class="cls-26" x="175.49" y="287.89" width="38.94" height="22.65" rx="10.43" transform="translate(389.93 598.44) rotate(-180)"></rect><path class="cls-15" d="M201.7,299.22c0-.37,0-.73,0-1.1a22.64,22.64,0,0,1,1.32-6.6h-2.53a7.71,7.71,0,0,0,0,15.4h2.53a22.34,22.34,0,0,1-1.34-7.3C201.7,299.49,201.7,299.35,201.7,299.22Zm.09,6.8h-1.27a6.76,6.76,0,0,1-5.05-2.66,6.68,6.68,0,0,1-1.42-4.13,6.82,6.82,0,0,1,6.47-6.79h1.27a24,24,0,0,0-1,6.76v0c0,.32,0,.63,0,.94A23.17,23.17,0,0,0,201.79,306Z"></path><path class="cls-16" d="M265.54,377.11a36.61,36.61,0,0,0-5,18.48l.19,16.53,54-1.1v-29.1A82.71,82.71,0,0,0,290.05,323L277.17,310.3l-13.05-12.85a23.15,23.15,0,0,0,.13,32.89l9.09,14.7v18.62C273.34,363.75,268.76,371.59,265.54,377.11Z"></path><g class="cls-27"><rect class="cls-26" x="255.31" y="303.25" width="57.92" height="22.29" rx="10.27" transform="translate(305.57 -108.93) rotate(45)"></rect></g><path class="cls-15" d="M275.22,313.44h0a5,5,0,0,0,3.57-1.51l-.56-.55a4.24,4.24,0,0,1-3,1.27h0a4.21,4.21,0,0,1-3-1.23L264,303.29a19.22,19.22,0,0,1,2.67-3.33l-.55-.56a20.2,20.2,0,0,0-3,3.74l-.16.26.37.38,8.34,8.21A5,5,0,0,0,275.22,313.44Z"></path><path class="cls-2" d="M507.42,476.48l3.09-6.18,31-35.66s-4.33-32.68-5.61-32.81-28.47-.12-28.47-.12l36.9-6.12-16.18-35.18-20.1.51,36.28-6.52-4.14-34.88h-29l30.09-7.37-33.46-20-110.95,94.1,13.59,90.22Z"></path><path class="cls-2" d="M510.51,470.3c-22.24,64.27-82.24,79.47-82.24,79.47l0,2L428.2,562l-.14,24.95,0,3.73c-3.6.16-7.22.25-10.85.25a238.6,238.6,0,0,1-68.75-10,235.45,235.45,0,0,1-24.85-9l9.51-63.18,3.1-20.6V470.29H510.51Z"></path><path class="cls-17" d="M420.91,448.67V489s51,5.54,72.33-40.34Z"></path><path class="cls-15" d="M465.38,327.17a4.31,4.31,0,0,1-8.61,0Z"></path><rect class="cls-15" x="415.46" y="387.52" width="9.27" height="1.24" transform="translate(-112.51 596.62) rotate(-64.11)"></rect><path class="cls-28" d="M401.8,479.57v67.19a33.42,33.42,0,0,0,10.29,24.13l16.27,16.32-.65-101.36Z"></path><path class="cls-10" d="M410.09,322.35v94.48a239.27,239.27,0,0,0,104.1-.1V322.35a239.27,239.27,0,0,1-104.1,0Z"></path><path class="cls-10" d="M410.09,416V532.28a19.53,19.53,0,0,0,19.53,19.53s5.52,1.57,32.52,1.57,32.52-1.57,32.52-1.57a19.53,19.53,0,0,0,19.53-19.53V415.85a239.27,239.27,0,0,1-104.1.1Z"></path><path class="cls-10" d="M494.66,170.62s-1.6-.78-32.52-.78c-29.35,0-32.52.78-32.52.78a19.54,19.54,0,0,0-19.53,19.53V323.68a239.27,239.27,0,0,0,104.1,0V190.15A19.53,19.53,0,0,0,494.66,170.62Z"></path><rect class="cls-29" x="421.44" y="194.1" width="81.4" height="109.58"></rect><path class="cls-21" d="M462.67,436.39a84.94,84.94,0,0,1-11.26-.72,1.17,1.17,0,1,1,.33-2.32,82.3,82.3,0,0,0,20.79,0,1.17,1.17,0,0,1,.36,2.32A67.75,67.75,0,0,1,462.67,436.39Z"></path><path class="cls-21" d="M471.92,182H452.36a1.18,1.18,0,1,1,0-2.35h19.56a1.18,1.18,0,1,1,0,2.35Z"></path><path class="cls-12" d="M467.18,335.43H456.73a8.73,8.73,0,0,0-8.39,8.75v10.07a8.77,8.77,0,0,0,8.77,8.76h10.07a8.76,8.76,0,0,0,8.76-8.76V344.19A8.76,8.76,0,0,0,467.18,335.43Zm4.23,17.87a5.2,5.2,0,0,1-5.2,5.2h-8.14a5.2,5.2,0,0,1-5.2-5.2v-8.15a5.19,5.19,0,0,1,5.2-5.19h8.14a5.19,5.19,0,0,1,5.2,5.19Z"></path><path class="cls-30" d="M429.56,338.16a.67.67,0,0,1-.2-.47A.66.66,0,0,1,430,337h9.27a.66.66,0,0,1,.66.65.67.67,0,0,1-.66.66H430A.67.67,0,0,1,429.56,338.16Z"></path><path class="cls-30" d="M484.53,338.16a.67.67,0,0,1-.2-.47A.66.66,0,0,1,485,337h9.27a.66.66,0,0,1,.66.65.67.67,0,0,1-.66.66H485A.67.67,0,0,1,484.53,338.16Z"></path><path class="cls-30" d="M487.18,358a.63.63,0,0,1-.2-.46.67.67,0,0,1,.66-.66h4.64a.66.66,0,0,1,0,1.32h-4.64A.63.63,0,0,1,487.18,358Z"></path><path class="cls-30" d="M428.89,358.47a.67.67,0,0,1-.19-.47v-.29a3.69,3.69,0,0,1,3.68-3.68h4.11a3.69,3.69,0,0,1,3.68,3.68V358a.67.67,0,0,1-.66.66.66.66,0,0,1-.65-.66v-.29a2.42,2.42,0,0,0-2.37-2.36h-4.11a2.32,2.32,0,0,0-1.67.69,2.35,2.35,0,0,0-.7,1.67V358a.65.65,0,0,1-.65.66A.71.71,0,0,1,428.89,358.47Z"></path><path class="cls-30" d="M484.31,358.69a.67.67,0,0,1-.2-.47v-.29a3.67,3.67,0,0,1,3.68-3.67h4.11a3.67,3.67,0,0,1,3.68,3.67v.29a.66.66,0,1,1-1.31,0v-.29a2.37,2.37,0,0,0-2.37-2.36h-4.11a2.36,2.36,0,0,0-2.36,2.36v.29a.66.66,0,0,1-.66.66A.63.63,0,0,1,484.31,358.69Z"></path><path class="cls-30" d="M432.87,367.65l.19-.19q0,.5,0,1.05v4.41h.69v-6.19h-.6L431.48,368l.38.49Z"></path><path class="cls-30" d="M463,375.36h-3.19v0l1.36-1.33a7.48,7.48,0,0,0,1.24-1.46,2.3,2.3,0,0,0,.33-1.16,1.52,1.52,0,0,0-.5-1.2,2,2,0,0,0-1.37-.45,2.87,2.87,0,0,0-1.86.71l.37.48a2.83,2.83,0,0,1,.77-.46,2,2,0,0,1,.73-.13,1.17,1.17,0,0,1,.84.29,1,1,0,0,1,.3.79,1.75,1.75,0,0,1-.12.65,2.54,2.54,0,0,1-.36.63,10.59,10.59,0,0,1-1,1.08l-1.63,1.64v.6H463Z"></path><path class="cls-30" d="M487.53,374.33a2.87,2.87,0,0,0,1.75-.47,1.64,1.64,0,0,0,.61-1.37,1.41,1.41,0,0,0-.36-1,1.79,1.79,0,0,0-1.11-.47v0a1.65,1.65,0,0,0,.95-.5,1.41,1.41,0,0,0,.33-1,1.39,1.39,0,0,0-.5-1.13,2.11,2.11,0,0,0-1.4-.42,3.3,3.3,0,0,0-1.05.17,3.1,3.1,0,0,0-.88.48l.35.47a3.71,3.71,0,0,1,.83-.41,2.68,2.68,0,0,1,.76-.11,1.31,1.31,0,0,1,.85.26.88.88,0,0,1,.31.71,1.05,1.05,0,0,1-.42.89,1.83,1.83,0,0,1-1.15.32h-.62v.61h.61c1.18,0,1.77.37,1.77,1.13s-.53,1.26-1.6,1.26a3.91,3.91,0,0,1-.87-.11,4.17,4.17,0,0,1-.86-.3V374a3.4,3.4,0,0,0,.8.26A5,5,0,0,0,487.53,374.33Z"></path><path class="cls-30" d="M434.56,382.34v-4.16h-.75l-2.94,4.18V383h3v1.42h.68V383h.92v-.64Zm-.68-2.06v2.06h-2.31l1.94-2.76a4.84,4.84,0,0,0,.38-.67h0C433.9,379.42,433.88,379.88,433.88,380.28Z"></path><path class="cls-30" d="M460.67,387a3.35,3.35,0,0,1-.87-.11,2.47,2.47,0,0,1-.73-.29v.67a3,3,0,0,0,1.59.34,2.41,2.41,0,0,0,1.69-.55,1.92,1.92,0,0,0,.62-1.51,1.67,1.67,0,0,0-.57-1.33,2.27,2.27,0,0,0-1.54-.48,4.63,4.63,0,0,0-1,.1l.16-1.86h2.48v-.65h-3.08l-.23,2.9.36.23a6.5,6.5,0,0,1,1.08-.12q1.59,0,1.59,1.29a1.24,1.24,0,0,1-.42,1A1.69,1.69,0,0,1,460.67,387Z"></path><path class="cls-30" d="M489.5,382.37a1.73,1.73,0,0,0-1.32-.5,1.61,1.61,0,0,0-1.47.73h-.06a3.26,3.26,0,0,1,.58-2,1.88,1.88,0,0,1,1.52-.62,2.47,2.47,0,0,1,.75.11v-.6a2.56,2.56,0,0,0-.75-.09,2.5,2.5,0,0,0-2.11.91,4.39,4.39,0,0,0-.71,2.73,3.16,3.16,0,0,0,.57,2,1.83,1.83,0,0,0,1.52.73,1.88,1.88,0,0,0,1.43-.56,2.13,2.13,0,0,0,.53-1.52A2,2,0,0,0,489.5,382.37Zm-.55,2.47a1.29,1.29,0,0,1-1.65.15,1.34,1.34,0,0,1-.48-.59,2,2,0,0,1-.17-.82,1,1,0,0,1,.19-.57,1.34,1.34,0,0,1,.51-.43,1.6,1.6,0,0,1,.7-.16,1.16,1.16,0,0,1,.92.35,1.46,1.46,0,0,1,.31,1A1.62,1.62,0,0,1,489,384.84Z"></path><polygon class="cls-30" points="432.67 396.32 435.21 390.69 435.21 390.13 431.08 390.13 431.08 390.78 434.46 390.78 431.89 396.32 432.67 396.32"></polygon><path class="cls-30" d="M462.7,396.89a3,3,0,0,0-1.07-.76,2.51,2.51,0,0,0,.91-.68,1.35,1.35,0,0,0,.28-.84,1.28,1.28,0,0,0-.5-1.08,2,2,0,0,0-1.34-.4,2.09,2.09,0,0,0-1.33.4,1.3,1.3,0,0,0-.5,1.08,1.54,1.54,0,0,0,.25.86,2.45,2.45,0,0,0,.84.71,1.82,1.82,0,0,0-1.29,1.65,1.46,1.46,0,0,0,.53,1.23,2.28,2.28,0,0,0,1.52.44,2.24,2.24,0,0,0,1.48-.46,1.52,1.52,0,0,0,.53-1.23A1.42,1.42,0,0,0,462.7,396.89Zm-2.61-1.59a.94.94,0,0,1-.25-.66.86.86,0,0,1,.3-.69,1.52,1.52,0,0,1,1.67,0,.84.84,0,0,1,.31.69,1,1,0,0,1-.25.68,2.36,2.36,0,0,1-.86.55A2.51,2.51,0,0,1,460.09,395.3Zm1.88,3.33a1.46,1.46,0,0,1-1,.3,1.56,1.56,0,0,1-1-.29.94.94,0,0,1-.35-.79,1.15,1.15,0,0,1,.28-.78,2.44,2.44,0,0,1,.92-.61,3.47,3.47,0,0,1,1.15.63,1,1,0,0,1,0,1.54Z"></path><path class="cls-30" d="M489.68,392.63a2,2,0,0,0-.73-.94,2,2,0,0,0-2.52.23,2.12,2.12,0,0,0-.55,1.53,1.86,1.86,0,0,0,.49,1.37,1.74,1.74,0,0,0,1.31.49,2,2,0,0,0,.86-.18,1.42,1.42,0,0,0,.62-.54h.06a3.34,3.34,0,0,1-.57,1.94,1.91,1.91,0,0,1-1.54.62,2.31,2.31,0,0,1-.77-.11v.61a2.69,2.69,0,0,0,.78.09c1.88,0,2.81-1.22,2.81-3.65A3.85,3.85,0,0,0,489.68,392.63Zm-.65,1.53a1.17,1.17,0,0,1-.5.43,1.57,1.57,0,0,1-.71.16,1.17,1.17,0,0,1-.94-.35,1.49,1.49,0,0,1-.3-1,1.65,1.65,0,0,1,.33-1.09,1.2,1.2,0,0,1,.94-.38,1.24,1.24,0,0,1,.71.21,1.36,1.36,0,0,1,.49.59,1.93,1.93,0,0,1,.17.83A1,1,0,0,1,489,394.16Z"></path><polygon class="cls-30" points="435.16 403.12 432.53 403.85 432.82 401.24 431.54 401.24 431.82 403.85 429.24 403.12 429.05 404.32 431.54 404.52 429.94 406.67 431.1 407.3 432.16 404.9 433.32 407.3 434.46 406.67 432.82 404.52 435.33 404.32 435.16 403.12"></polygon><path class="cls-30" d="M462.51,405a1.71,1.71,0,0,0-1.53-.81,1.69,1.69,0,0,0-1.54.79,5.85,5.85,0,0,0,0,4.78,1.68,1.68,0,0,0,1.52.81,1.74,1.74,0,0,0,1.55-.79,4.51,4.51,0,0,0,.51-2.4A4.44,4.44,0,0,0,462.51,405ZM462,409.3a1.06,1.06,0,0,1-1,.63,1.07,1.07,0,0,1-1-.61,4.63,4.63,0,0,1-.31-2,4.57,4.57,0,0,1,.31-2,1.15,1.15,0,0,1,2,0,4.57,4.57,0,0,1,.31,2A4.52,4.52,0,0,1,462,409.3Z"></path><path class="cls-30" d="M490.82,404.88v-.54H489.7l.36-1.85h-.57l-.36,1.85h-1.29l.35-1.85h-.59l-.35,1.85H486v.54h1.18l-.29,1.44h-1.22v.55h1.11l-.33,1.82H487l.35-1.82h1.28l-.36,1.82h.59l.36-1.82h1.3v-.55h-1.21l.29-1.44Zm-2.09,1.44h-1.28l.28-1.44H489Z"></path><path class="cls-30" d="M410,324.32a239.73,239.73,0,0,0,104.38,0L514,323c-16.82,3.79-121.51,5.71-51.9,5.71,17.62,0-35.08-1.92-51.9-5.71Z"></path><path class="cls-30" d="M410,418.49a240.13,240.13,0,0,0,104.38,0l-.29-1.28a238.72,238.72,0,0,1-103.8,0Z"></path><path class="cls-2" d="M413.37,417.09a57.5,57.5,0,0,1,7.84,29v22.49a42.51,42.51,0,0,1-42.51,42.51h0a42.5,42.5,0,0,1-42.5-42.51V426.71a134.65,134.65,0,0,1,40.2-96l18.72-18.42,16.72-16.46a4.94,4.94,0,0,1,7.44.59,36.37,36.37,0,0,1-3.49,46.91,4.68,4.68,0,0,0-.68.86l-13.24,21.39a5,5,0,0,0-.74,2.59V396C401.13,396.14,408.31,408.44,413.37,417.09Z"></path><path id="SVGID-4" data-name="SVGID" class="cls-2" d="M413.37,417.09a57.5,57.5,0,0,1,7.84,29v24.2h-85V424.65a129.7,129.7,0,0,1,38.73-92.46l20.19-19.87,20.48-20.16a36.35,36.35,0,0,1-.2,51.59L401.13,366.8V396C401.13,396.14,408.31,408.44,413.37,417.09Z"></path><g class="cls-31"><rect class="cls-32" x="338.56" y="301.26" width="90.84" height="34.96" rx="16.11" transform="translate(880.89 272.61) rotate(135)"></rect></g><path class="cls-2" d="M398.18,317.25h-.06a7.88,7.88,0,0,1-5.59-2.37l.88-.87a6.61,6.61,0,0,0,4.72,2h.05a6.67,6.67,0,0,0,4.72-1.93l13-12.76a30.55,30.55,0,0,0-4.19-5.22l.87-.87a31.5,31.5,0,0,1,4.63,5.86l.26.41-.59.59L403.76,315A7.89,7.89,0,0,1,398.18,317.25Z"></path><rect class="cls-32" x="504.59" y="401.83" width="45" height="35.72" rx="16.45"></rect><path class="cls-15" d="M526.05,407.35a35.78,35.78,0,0,1,0,24.21,12.14,12.14,0,0,0,0-24.21Zm2.09,22.4a37.27,37.27,0,0,0,0-20.59,10.71,10.71,0,0,1,0,20.59Z"></path><rect class="cls-32" x="493.52" y="319.22" width="64.29" height="35.72" rx="16.45"></rect><rect class="cls-32" x="493.52" y="360.41" width="64.29" height="35.72" rx="16.45"></rect><path class="cls-15" d="M514.94,366.12h-3.47a35.85,35.85,0,0,1,0,24.29h3.47a12.15,12.15,0,1,0,0-24.29Zm0,22.87h-1.49c.29-1,.53-1.92.74-2.9a37.25,37.25,0,0,0,0-15.64c-.21-1-.45-1.94-.74-2.89h1.49a10.72,10.72,0,1,1,0,21.43Z"></path><path class="cls-15" d="M514.94,324.94h-3.47a35.85,35.85,0,0,1,0,24.29h3.47a12.15,12.15,0,1,0,0-24.29Zm0,22.86h-1.49c.29-1,.53-1.92.74-2.9a37.21,37.21,0,0,0,0-15.63c-.21-1-.45-1.94-.74-2.9h1.49a10.72,10.72,0,1,1,0,21.43Z"></path><rect class="cls-32" x="493.52" y="277.18" width="61.08" height="35.52" rx="16.36"></rect><path class="cls-15" d="M514.83,282.86h-3.45a35.5,35.5,0,0,1,2.11,12.08c0,.21,0,.43,0,.64a35.47,35.47,0,0,1-2.1,11.43h3.45a12.08,12.08,0,0,0,0-24.15Zm8.44,18.57a10.63,10.63,0,0,1-8.44,4.16h-1.49c.34-1.12.62-2.26.85-3.41a36.06,36.06,0,0,0,.68-5.77c0-.49,0-1,0-1.47a36.32,36.32,0,0,0-.71-7.23c-.23-1.16-.51-2.3-.85-3.43h1.49a10.65,10.65,0,0,1,8.44,17.15Zm-9.08-13.72V296l.68.41c0-.49,0-1,0-1.47A36.32,36.32,0,0,0,514.19,287.71Z"></path><circle class="cls-33" cx="812.81" cy="68.26" r="22.27"></circle><circle class="cls-33" cx="718.73" cy="570.67" r="8.28"></circle><path class="cls-34" d="M157.82,179.08v14.75a21,21,0,0,0,21,20.94h156.5l21.33,16.15a5.48,5.48,0,0,0,8.79-4.37V179.08a20.93,20.93,0,0,0-20.93-20.93H178.76A20.94,20.94,0,0,0,157.82,179.08Z"></path><path class="cls-21" d="M190.11,183.85H298.64a5,5,0,0,0,5-5h0a5,5,0,0,0-5-5H190.11a5,5,0,0,0-5,5h0A5,5,0,0,0,190.11,183.85Z"></path><path class="cls-21" d="M190.11,201.12H298.64a5,5,0,0,0,5-5h0a5,5,0,0,0-5-5H190.11a5,5,0,0,0-5,5h0A5,5,0,0,0,190.11,201.12Z"></path><g class="cls-35"><rect class="cls-36" x="313.75" y="161.27" width="39.14" height="52.35" rx="19.57"></rect><rect class="cls-37" x="313.86" y="161.52" width="38.91" height="51.77" rx="19.44"></rect><rect class="cls-38" x="313.98" y="161.78" width="38.68" height="51.19" rx="19.32"></rect><rect class="cls-39" x="314.09" y="162.03" width="38.46" height="50.61" rx="19.2"></rect><rect class="cls-40" x="314.2" y="162.28" width="38.23" height="50.03" rx="19.07"></rect><rect class="cls-41" x="314.32" y="162.54" width="38" height="49.46" rx="18.95"></rect><rect class="cls-42" x="314.43" y="162.79" width="37.78" height="48.88" rx="18.82"></rect><rect class="cls-43" x="314.54" y="163.04" width="37.55" height="48.3" rx="18.7"></rect><rect class="cls-44" x="314.66" y="163.3" width="37.32" height="47.72" rx="18.58"></rect><rect class="cls-45" x="314.77" y="163.55" width="37.1" height="47.14" rx="18.45"></rect><rect class="cls-46" x="314.88" y="163.81" width="36.87" height="46.57" rx="18.33"></rect><rect class="cls-47" x="315" y="164.06" width="36.65" height="45.99" rx="18.2"></rect><rect class="cls-48" x="315.11" y="164.31" width="36.42" height="45.41" rx="18.08"></rect><rect class="cls-49" x="315.22" y="164.57" width="36.19" height="44.83" rx="17.96"></rect><rect class="cls-50" x="315.34" y="164.82" width="35.97" height="44.25" rx="17.83"></rect><rect class="cls-51" x="315.45" y="165.07" width="35.74" height="43.68" rx="17.71"></rect><rect class="cls-52" x="315.56" y="165.33" width="35.51" height="43.1" rx="17.59"></rect><rect class="cls-53" x="315.68" y="165.58" width="35.29" height="42.52" rx="17.46"></rect><rect class="cls-54" x="315.79" y="165.83" width="35.06" height="41.94" rx="17.34"></rect><rect class="cls-55" x="315.9" y="166.09" width="34.83" height="41.36" rx="17.21"></rect><rect class="cls-56" x="316.01" y="166.34" width="34.61" height="40.79" rx="17.09"></rect><rect class="cls-57" x="316.13" y="166.59" width="34.38" height="40.21" rx="16.97"></rect><rect class="cls-58" x="316.24" y="166.85" width="34.16" height="39.63" rx="16.84"></rect><rect class="cls-59" x="316.35" y="167.1" width="33.93" height="39.05" rx="16.72"></rect><rect class="cls-60" x="316.47" y="167.35" width="33.7" height="38.47" rx="16.59"></rect><rect class="cls-61" x="316.58" y="167.61" width="33.48" height="37.89" rx="16.47"></rect><rect class="cls-62" x="316.69" y="167.86" width="33.25" height="37.32" rx="16.35"></rect><rect class="cls-63" x="316.81" y="168.11" width="33.02" height="36.74" rx="16.22"></rect><rect class="cls-64" x="316.92" y="168.37" width="32.8" height="36.16" rx="16.1"></rect><rect class="cls-65" x="317.03" y="168.62" width="32.57" height="35.58" rx="15.97"></rect><rect class="cls-66" x="317.15" y="168.88" width="32.34" height="35" rx="15.85"></rect><rect class="cls-67" x="317.26" y="169.13" width="32.12" height="34.43" rx="15.73"></rect><rect class="cls-68" x="317.37" y="169.38" width="31.89" height="33.85" rx="15.6"></rect><rect class="cls-69" x="317.49" y="169.64" width="31.67" height="33.27" rx="15.48"></rect><rect class="cls-70" x="317.6" y="169.89" width="31.44" height="32.69" rx="15.36"></rect><rect class="cls-71" x="317.71" y="170.14" width="31.21" height="32.11" rx="15.23"></rect><rect class="cls-72" x="317.83" y="170.4" width="30.99" height="31.54" rx="15.11"></rect><rect class="cls-73" x="317.94" y="170.65" width="30.76" height="30.96" rx="14.98"></rect><rect class="cls-74" x="318.05" y="170.9" width="30.53" height="30.38" rx="14.86"></rect><rect class="cls-75" x="318.17" y="171.16" width="30.31" height="29.8" rx="14.74"></rect><rect class="cls-76" x="318.28" y="171.41" width="30.08" height="29.22" rx="14.61"></rect><circle class="cls-14" cx="333.66" cy="184.95" r="17.25" transform="translate(-17.22 334.67) rotate(-52.11)"></circle><path class="cls-15" d="M328.2,180.56c0,3.17,2.44,6.15,5.46,6.15s5.45-3,5.45-6.15a5.46,5.46,0,1,0-10.91,0Z"></path><path class="cls-15" d="M322.89,192.92c0,2.34,4.82,5.67,10.77,5.67s10.77-3.33,10.77-5.67-4.82-4.23-10.77-4.23S322.89,190.58,322.89,192.92Z"></path></g><rect class="cls-77" x="645.07" y="119.18" width="49.84" height="49.84" rx="6.15"></rect><path class="cls-15" d="M682.53,132.36H657.45a3,3,0,0,0-3,3v15.55a3,3,0,0,0,3,3.05h6.65v3.78l8.18-3.78h10.25a3.09,3.09,0,0,0,3.06-3.05V135.33A3.08,3.08,0,0,0,682.53,132.36Zm-25.08-2.16h25.08a5.12,5.12,0,0,1,5.12,5.13v15.55a5.19,5.19,0,0,1-5.12,5.21h-9.8L662,161v-4.94h-4.5a5.2,5.2,0,0,1-5.12-5.21V135.33A5.18,5.18,0,0,1,657.45,130.2Zm20.77,10.16a1,1,0,0,1-1.08-1.08,1.08,1.08,0,0,1,2.16,0A1,1,0,0,1,678.22,140.36Zm-16.45,0a1,1,0,0,1-1.08-1.08,1,1,0,0,1,1.08-1h12a1,1,0,0,1,1.08,1,1,1,0,0,1-1.08,1.08Zm0,7.64a1,1,0,0,1-1.08-1.08,1.09,1.09,0,0,1,1.08-1.08h16.45a1.09,1.09,0,0,1,1.08,1.08,1,1,0,0,1-1.08,1.08Z"></path><rect class="cls-78" x="690.5" y="399.68" width="67.3" height="67.3" rx="8.3"></rect><path class="cls-15" d="M724,411.79a20.52,20.52,0,1,0,7,39.82V449.3a18.37,18.37,0,1,1,11.37-17,18.27,18.27,0,0,1-1.38,7l1.56,1.79a20.33,20.33,0,0,0,2-8.78A20.55,20.55,0,0,0,724,411.79Z"></path><path class="cls-15" d="M724,411.79c-3.91,0-7.37,2.46-9.77,6.18a28.61,28.61,0,0,0,0,28.67c2.4,3.73,5.86,6.19,9.77,6.19a10.46,10.46,0,0,0,7-2.89v-3.13c-2,2.47-4.42,3.86-7,3.86-3,0-5.83-1.89-8-5.2a26.51,26.51,0,0,1,0-26.33c2.13-3.31,5-5.2,8-5.2s5.83,1.89,8,5.2a24.71,24.71,0,0,1,3.5,13.16c0,.21,0,.41,0,.62l2,2.33c.09-1,.14-1.95.14-2.95A26.74,26.74,0,0,0,733.78,418c-2.4-3.73-5.86-6.19-9.78-6.19Z"></path><path class="cls-15" d="M734,431.23l1.88,2.16h7.28a1.05,1.05,0,0,0,.76-.32,1.06,1.06,0,0,0,0-1.52,1.05,1.05,0,0,0-.76-.32Zm-28.9,0a1.07,1.07,0,0,0-.77,1.84,1.12,1.12,0,0,0,.77.32H731v-2.16Z"></path><path class="cls-15" d="M724.1,412.19a1.07,1.07,0,0,0-1.06,1.09v38.06a1.06,1.06,0,0,0,.31.77,1.1,1.1,0,0,0,.77.32,1.08,1.08,0,0,0,1.08-1.09V413.28a1.1,1.1,0,0,0-.32-.78,1,1,0,0,0-.78-.31Z"></path><path class="cls-15" d="M707.18,422.34a1.11,1.11,0,0,0-.78.31,1.09,1.09,0,0,0,0,1.54,1.11,1.11,0,0,0,.78.31h33.88a1.09,1.09,0,0,0,.77-.31,1.09,1.09,0,0,0,0-1.54,1.09,1.09,0,0,0-.77-.31Z"></path><path class="cls-15" d="M707.34,440.12a1.08,1.08,0,0,0-.78.3,1.11,1.11,0,0,0-.33.78,1.07,1.07,0,0,0,.33.77,1.13,1.13,0,0,0,.78.31H731v-2.16Z"></path><polygon class="cls-15" points="732.44 431.65 746.93 448.33 738.65 448.26 732.44 453.74 732.44 431.65"></polygon><rect class="cls-15" x="738.12" y="445.43" width="2.56" height="9.67" transform="translate(-110.84 287.34) rotate(-20.49)"></rect><rect class="cls-79" x="590.5" y="204.58" width="36.51" height="36.51" rx="4.8"></rect><path class="cls-15" d="M605.48,215.86l8.84,5.43a1.68,1.68,0,0,1,0,2.86l-8.84,5.43a1.67,1.67,0,0,1-2.55-1.43V217.29A1.67,1.67,0,0,1,605.48,215.86Z"></path><rect class="cls-80" x="92.88" y="222.83" width="53.59" height="53.59" rx="6.61"></rect><path class="cls-81" d="M120,233.22a16,16,0,0,0-13.83,24.29l-2.91,8.59,8.94-2.83a16.25,16.25,0,0,0,7.8,2,16,16,0,1,0,0-32Zm-7.33,19.07a2.38,2.38,0,1,1,2.37-2.38A2.38,2.38,0,0,1,112.64,252.29Zm7,0a2.38,2.38,0,1,1,2.37-2.38A2.37,2.37,0,0,1,119.66,252.29Zm7,0a2.38,2.38,0,1,1,2.37-2.38A2.38,2.38,0,0,1,126.68,252.29Z"></path><rect class="cls-82" x="220.86" y="83.9" width="35.28" height="35.28" rx="5.17"></rect><path class="cls-15" d="M240.37,111.43a1.87,1.87,0,1,1-1.87-1.87A1.87,1.87,0,0,1,240.37,111.43Z"></path><path class="cls-15" d="M244.4,105.33a.14.14,0,0,1-.06.14l-1.66,1.67a.32.32,0,0,1-.24.09.48.48,0,0,1-.23-.07,6.76,6.76,0,0,0-7.42,0,.48.48,0,0,1-.23.07.34.34,0,0,1-.24-.09l-1.66-1.67a.16.16,0,0,1-.06-.14.14.14,0,0,1,.06-.12,9.56,9.56,0,0,1,11.68,0A.14.14,0,0,1,244.4,105.33Z"></path><path class="cls-15" d="M248.76,100.83a.51.51,0,0,1-.15.38l-1.21,1.21a.63.63,0,0,1-.45.17.77.77,0,0,1-.44-.14,13,13,0,0,0-16,0,.77.77,0,0,1-.44.14.66.66,0,0,1-.45-.17l-1.21-1.21a.51.51,0,0,1-.15-.38.41.41,0,0,1,.17-.34,15.91,15.91,0,0,1,20.18,0A.41.41,0,0,1,248.76,100.83Z"></path><path class="cls-15" d="M253.12,96.33a.9.9,0,0,1-.25.62l-.76.76a.94.94,0,0,1-.67.26,1.06,1.06,0,0,1-.66-.23,19.4,19.4,0,0,0-24.56,0,1,1,0,0,1-.66.23,1,1,0,0,1-.67-.26l-.75-.76a.82.82,0,0,1-.25-.62.75.75,0,0,1,.27-.55,22.21,22.21,0,0,1,28.68,0A.8.8,0,0,1,253.12,96.33Z"></path></g></g></svg> 